<svg xmlns="http://www.w3.org/2000/svg">
    <view id="presents" viewBox="0 0 74 74" />
    <svg width="74" height="74" viewBox="0 0 74 74" fill="none" x="0">
        <path d="M71.6982 64.6352C71.7028 64.1387 71.5914 63.648 71.3728 63.2022C71.1542 62.7565 70.8345 62.368 70.4391 62.0678L66.922 59.4023L67.1686 33.9908C67.2182 28.8708 65.2319 23.9417 61.6464 20.2878C58.0609 16.6339 53.17 14.5545 48.0497 14.507L52.9762 4.24649L50.5745 3.02844C49.8281 2.64939 49.004 2.44812 48.1668 2.44036C47.3295 2.43261 46.5016 2.61858 45.748 2.98374C44.9943 3.34889 44.1665 3.53486 43.3292 3.52711C42.4919 3.51935 41.6679 3.31808 40.9214 2.93903C40.175 2.55998 39.3509 2.35871 38.5136 2.35096C37.6764 2.3432 36.8485 2.52917 36.0949 2.89433L33.67 4.06768L38.3966 14.4176C33.2762 14.3702 28.3459 16.3586 24.6901 19.9455C21.0344 23.5323 18.9527 28.4238 18.903 33.5438L18.6571 58.8816L15.0689 61.5501C14.6732 61.8448 14.3509 62.227 14.1272 62.6668C13.9036 63.1067 13.7846 63.5922 13.7796 64.0855C13.7754 64.5054 13.854 64.922 14.0108 65.3115C14.1677 65.701 14.3998 66.0557 14.6939 66.3554C14.988 66.6551 15.3382 66.8938 15.7247 67.0581C16.1112 67.2223 16.5262 67.3087 16.9462 67.3125L68.483 67.7898C69.3274 67.7973 70.1404 67.4692 70.7433 66.8777C71.3462 66.2861 71.6897 65.4796 71.6982 64.6352Z" fill="#DD4A43"/>
        <path d="M70.431 62.0688L66.9138 59.4033L67.1604 33.9919C67.1867 31.3647 66.6745 28.7602 65.6553 26.339C64.6361 23.9178 63.1315 21.7313 61.2344 19.9143C55.7017 47.1326 35.6334 60.9707 23.0224 67.3699L68.4748 67.7909C69.1444 67.7972 69.799 67.5924 70.3457 67.2055C70.8923 66.8185 71.3031 66.2692 71.5198 65.6356C71.7364 65.0019 71.7478 64.3162 71.5523 63.6759C71.3568 63.0356 70.9645 62.4732 70.431 62.0688Z" fill="#D13E37"/>
        <path d="M48.0195 15.7151L38.3668 15.6257C38.0468 15.6227 37.7411 15.4928 37.517 15.2644C37.2929 15.036 37.1688 14.728 37.1719 14.408C37.175 14.088 37.3051 13.7823 37.5336 13.5581C37.762 13.3339 38.0702 13.2096 38.3902 13.2126L48.043 13.302C48.363 13.305 48.6686 13.4349 48.8927 13.6633C49.1168 13.8917 49.241 14.1997 49.2379 14.5197C49.2347 14.8397 49.1046 15.1454 48.8762 15.3696C48.6477 15.5938 48.3396 15.7181 48.0195 15.7151Z" fill="#7A4321"/>
        <path d="M41.4876 28.3869L41.3961 28.2449C39.9344 25.9962 39.2943 23.3115 39.584 20.6445C39.8737 17.9776 41.0755 15.4921 42.9861 13.6083C43.1563 13.4395 43.3728 13.3251 43.6081 13.2798C43.8434 13.2345 44.0868 13.2603 44.3074 13.3538C44.528 13.4474 44.7156 13.6045 44.8465 13.8051C44.9774 14.0058 45.0456 14.2408 45.0423 14.4804C45.0256 16.4665 45.533 18.4217 46.5132 20.1487C47.4935 21.8757 48.912 23.3135 50.6256 24.317L52.7735 25.5713L51.5562 27.656L49.4084 26.4017C47.7952 25.4562 46.3926 24.1908 45.2866 22.6832C44.1807 21.1755 43.3948 19.4576 42.9772 17.6348C42.2216 19.0852 41.8647 20.7102 41.9429 22.3434C42.0212 23.9766 42.5319 25.5595 43.4228 26.9303L43.5167 27.076L41.4876 28.3869Z" fill="#7A4321"/>
        <path d="M33.1895 52.984L33.0022 72.289L4.04314 72.0208L4.23047 52.7158" fill="#2C5134"/>
        <path d="M35.6781 45.767L1.89258 45.4541L1.82233 52.6935L35.6079 53.0064L35.6781 45.767Z" fill="white"/>
        <path d="M35.6781 45.767L1.89258 45.4541L1.82233 52.6935L35.6079 53.0064L35.6781 45.767Z" fill="#2C5134" fill-opacity="0.8"/>
        <path d="M11.6228 35.8916L18.7687 45.6111L10.3226 45.5329L5.55472 39.4554L10.3811 39.5001L11.6228 35.8916Z" fill="#D13E37"/>
        <path d="M26.1048 36.0263L18.7716 45.6117L27.2177 45.6899L32.1027 39.7018L27.2763 39.6571L26.1048 36.0263Z" fill="#B5362F"/>
        <path d="M33.1895 52.984L4.23047 52.7158L4.19534 56.3355L33.1544 56.6037L33.1895 52.984Z" fill="#2C5134"/>
        <path d="M22.39 45.6452L15.1504 45.5781L14.8928 72.1224L22.1324 72.1895L22.39 45.6452Z" fill="#DD4A43"/>
        <path d="M25.3717 30.2879L23.0391 29.6629C23.8504 26.632 25.5548 23.9148 27.9308 21.8649L29.5119 23.6896C27.4999 25.423 26.0571 27.7225 25.3717 30.2879Z" fill="#E66B65"/>
        <path d="M30.9656 22.5936L29.6494 20.5723C30.4142 20.0746 31.2211 19.6448 32.0608 19.2878L33.0046 21.5072C32.2945 21.809 31.6122 22.1725 30.9656 22.5936Z" fill="#E66B65"/>
        <path d="M10.1846 61.2174L7.77148 61.1951L7.70124 68.4344L10.1144 68.4568L10.1846 61.2174Z" fill="#56745D"/>
        <path d="M10.2217 56.3912L7.80859 56.3689L7.78518 58.782L10.1983 58.8044L10.2217 56.3912Z" fill="#56745D"/>
    </svg>
    <view id="cookie" viewBox="74 0 74 74" />
    <svg width="74" height="74" viewBox="0 0 74 74" fill="none" x="74">
        <path d="M68.2176 32.3748C65.9428 32.3741 63.7481 31.5352 62.0528 30.0184C60.3575 28.5016 59.2805 26.4134 59.0277 24.1527C57.4438 25.0913 55.6153 25.5348 53.7774 25.426C51.9394 25.3172 50.176 24.6612 48.7138 23.5423C47.2516 22.4234 46.1576 20.8927 45.5722 19.1471C44.9869 17.4014 44.937 15.5206 45.4291 13.7464C44.9358 13.8297 44.4366 13.8726 43.9364 13.8748C41.4831 13.8748 39.1303 12.9002 37.3956 11.1655C35.6609 9.43078 34.6863 7.07801 34.6863 4.62476C34.6882 4.2661 34.7106 3.90785 34.7534 3.55176C28.0256 4.00433 21.5905 6.47481 16.2882 10.6407C10.9859 14.8066 7.06281 20.4743 5.03103 26.9039C2.99925 33.3336 2.95319 40.2265 4.89888 46.6827C6.84456 53.139 10.6916 58.8586 15.9377 63.095C21.1839 67.3313 27.5854 69.8876 34.3066 70.43C41.0278 70.9724 47.7564 69.4758 53.614 66.1356C59.4716 62.7953 64.186 57.7667 67.1419 51.706C70.0977 45.6453 71.1576 38.8343 70.1832 32.162C69.5375 32.3027 68.8785 32.3741 68.2176 32.3748Z" fill="#A65C2E"/>
        <path d="M70.1824 32.1619C68.9178 32.4381 67.6091 32.4454 66.3415 32.1832C65.0738 31.921 63.8755 31.3952 62.8241 30.64C61.7728 29.8848 60.8919 28.917 60.2388 27.7993C59.5856 26.6817 59.1747 25.4393 59.0327 24.1526C57.9385 24.7969 56.7229 25.2083 55.4622 25.3609C55.0348 35.3376 50.7708 44.7638 43.5602 51.6721C36.3496 58.5804 26.7496 62.4371 16.7637 62.4372C16.211 62.4372 15.6629 62.4187 15.1172 62.3956C20.2919 66.8611 26.7082 69.638 33.5058 70.3539C40.3034 71.0698 47.1573 69.6904 53.1488 66.4008C59.1403 63.1112 63.9829 58.0685 67.0274 51.9488C70.0719 45.8291 71.1728 38.925 70.1824 32.1619Z" fill="#964C1E"/>
        <path d="M33.5312 37C36.0856 37 38.1562 34.9293 38.1562 32.375C38.1562 29.8207 36.0856 27.75 33.5312 27.75C30.9769 27.75 28.9062 29.8207 28.9062 32.375C28.9062 34.9293 30.9769 37 33.5312 37Z" fill="#663318"/>
        <path d="M25.4375 60.125C27.9918 60.125 30.0625 58.0543 30.0625 55.5C30.0625 52.9457 27.9918 50.875 25.4375 50.875C22.8832 50.875 20.8125 52.9457 20.8125 55.5C20.8125 58.0543 22.8832 60.125 25.4375 60.125Z" fill="#663318"/>
        <path d="M50.875 60.125C53.4293 60.125 55.5 58.0543 55.5 55.5C55.5 52.9457 53.4293 50.875 50.875 50.875C48.3207 50.875 46.25 52.9457 46.25 55.5C46.25 58.0543 48.3207 60.125 50.875 60.125Z" fill="#663318"/>
        <path d="M15.0312 39.3125C16.3084 39.3125 17.3438 38.2772 17.3438 37C17.3438 35.7228 16.3084 34.6875 15.0312 34.6875C13.7541 34.6875 12.7188 35.7228 12.7188 37C12.7188 38.2772 13.7541 39.3125 15.0312 39.3125Z" fill="#854219"/>
        <path d="M42.7812 50.875C44.0584 50.875 45.0938 49.8397 45.0938 48.5625C45.0938 47.2853 44.0584 46.25 42.7812 46.25C41.5041 46.25 40.4688 47.2853 40.4688 48.5625C40.4688 49.8397 41.5041 50.875 42.7812 50.875Z" fill="#854219"/>
        <path d="M55.5 37C56.7772 37 57.8125 35.9647 57.8125 34.6875C57.8125 33.4103 56.7772 32.375 55.5 32.375C54.2228 32.375 53.1875 33.4103 53.1875 34.6875C53.1875 35.9647 54.2228 37 55.5 37Z" fill="#854219"/>
        <path d="M21.4853 15.3954L20.1348 13.5188C21.2835 12.6927 22.4911 11.9519 23.748 11.3022L24.8095 13.3581C23.653 13.9548 22.5419 14.6358 21.4853 15.3954Z" fill="#C47747"/>
        <path d="M11.5529 29.2424L9.33984 28.5694C10.8833 23.513 13.7839 18.9767 17.7261 15.4541L19.2686 17.1769C15.6418 20.4175 12.9731 24.5907 11.5529 29.2424Z" fill="#C47747"/>
    </svg>
    <view id="note" viewBox="148 0 74 74" />
    <svg width="74" height="74" viewBox="0 0 74 74" fill="none" x="148">
        <path d="M11.5625 28.5071L3.46875 33.531V70.531H70.5312V33.531L62.4375 28.5071" fill="#729C22"/>
        <path d="M53.1875 3.46875H11.5625V64.75H62.4375V12.7188L53.1875 3.46875Z" fill="#DD4A43"/>
        <path d="M54.2281 4.50928C47.3427 31.6997 24.0639 50.9639 11.5625 59.6162V64.7499H62.4375V12.7187L54.2281 4.50928Z" fill="#D13E37"/>
        <path d="M70.5312 70.5312H3.46875V33.5312L37 56.6562L70.5312 33.5312V70.5312Z" fill="#7EA82D"/>
        <path d="M48.8712 29.6197L44.0866 31.6628L39.3113 28.9062L44.0866 26.1497L48.8712 28.1928L49.7788 26.0665L46.5887 24.7044L49.5927 22.9701L48.4364 20.9674L45.4325 22.7018L45.8476 19.2585L43.5513 18.9822L42.9292 24.1471L38.155 26.9036V21.3906L42.3175 18.2688L40.93 16.4187L38.155 18.5V15.0312H35.8425V18.5L33.0675 16.4187L31.68 18.2688L35.8425 21.3906V26.9036L31.0684 24.1471L30.4463 18.9822L28.15 19.2585L28.5651 22.7018L25.5612 20.9674L24.4049 22.9701L27.4088 24.7044L24.2188 26.0665L25.1264 28.1928L29.911 26.1497L34.6863 28.9062L29.911 31.6628L25.1264 29.6197L24.2188 31.746L27.4088 33.1081L24.4049 34.8424L25.5612 36.8451L28.5651 35.1107L28.15 38.554L30.4463 38.8303L31.0684 33.6654L35.8425 30.9089V36.4219L31.68 39.5438L33.0675 41.3937L35.8425 39.3125V42.7812H38.155V39.3125L40.93 41.3937L42.3175 39.5438L38.155 36.4219V30.9089L42.9292 33.6654L43.5513 38.8303L45.8476 38.554L45.4325 35.1107L48.4364 36.8451L49.5927 34.8424L46.5887 33.1081L49.7788 31.746L48.8712 29.6197Z" fill="#EBEBE8"/>
        <path d="M53.1875 12.7188V3.46875L62.4375 12.7188H53.1875Z" fill="#7EA82D"/>
        <path d="M9.25 40.4688H6.9375V42.7812H9.25V40.4688Z" fill="#97BF49"/>
        <path d="M9.25 45.0938H6.9375V56.6562H9.25V45.0938Z" fill="#97BF49"/>
        <path d="M24.2951 47.894L3.46875 68.8892V70.5311H5.09675L26.2284 49.2284L24.2951 47.894Z" fill="#729C22"/>
        <path d="M49.7047 47.894L47.7715 49.2284L68.9031 70.5311H70.5311V68.8892L49.7047 47.894Z" fill="#729C22"/>
    </svg>
    <view id="car" viewBox="222 0 74 74" />
    <svg width="74" height="74" viewBox="0 0 74 74" fill="none" x="222">
        <g clip-path="url(#clip0_2024_24995)">
            <path d="M10.4063 58.9688H3.46875V52.1052C3.46828 51.0879 3.80324 50.0989 4.42176 49.2912C5.04028 48.4835 5.90784 47.9023 6.89009 47.6375L16.3343 45.0938H65.9062C67.1329 45.0938 68.3093 45.581 69.1766 46.4484C70.044 47.3157 70.5312 48.4921 70.5312 49.7188V58.9688H63.5938" fill="#DD4A43"/>
            <path d="M3.65028 53.1875C3.53544 53.4665 3.47387 53.7646 3.46875 54.0662V58.9688H70.5312V53.1875H3.65028Z" fill="#D13E37"/>
            <path d="M62.4391 45.0938H16.3359L26.5109 32.8826C26.945 32.3618 27.4883 31.9428 28.1023 31.6552C28.7164 31.3677 29.3861 31.2187 30.0641 31.2188H50.7136C51.4749 31.2188 52.2245 31.4067 52.8957 31.766C53.567 32.1252 54.1392 32.6446 54.5616 33.278L62.4391 45.0938Z" fill="#87CED9"/>
            <path d="M41.625 31.2188H39.3125V45.0938H41.625V31.2188Z" fill="#5EB3D1"/>
            <path d="M16.1875 64.75C19.3804 64.75 21.9688 62.1616 21.9688 58.9688C21.9688 55.7759 19.3804 53.1875 16.1875 53.1875C12.9946 53.1875 10.4062 55.7759 10.4062 58.9688C10.4062 62.1616 12.9946 64.75 16.1875 64.75Z" fill="#575755"/>
            <path d="M57.8125 64.75C61.0054 64.75 63.5938 62.1616 63.5938 58.9688C63.5938 55.7759 61.0054 53.1875 57.8125 53.1875C54.6196 53.1875 52.0312 55.7759 52.0312 58.9688C52.0312 62.1616 54.6196 64.75 57.8125 64.75Z" fill="#575755"/>
            <path d="M16.1875 61.2812C17.4647 61.2812 18.5 60.2459 18.5 58.9688C18.5 57.6916 17.4647 56.6562 16.1875 56.6562C14.9103 56.6562 13.875 57.6916 13.875 58.9688C13.875 60.2459 14.9103 61.2812 16.1875 61.2812Z" fill="#EBEBE8"/>
            <path d="M57.8125 61.2812C59.0897 61.2812 60.125 60.2459 60.125 58.9688C60.125 57.6916 59.0897 56.6562 57.8125 56.6562C56.5353 56.6562 55.5 57.6916 55.5 58.9688C55.5 60.2459 56.5353 61.2812 57.8125 61.2812Z" fill="#EBEBE8"/>
            <path d="M60.125 9.25L46.25 15.0312V10.4062L32.375 16.1875V11.5625L18.5 17.405V13.875L3.46875 20.8125L18.5 27.75V24.22L32.375 30.0625V25.4375L46.25 31.2188V26.5938L60.125 32.375V9.25Z" fill="#7EA82D"/>
            <path d="M70.5312 18.5H60.125V23.125H70.5312V18.5Z" fill="#A65B2D"/>
            <path d="M31.2172 32.3751C31.1454 32.3754 31.0738 32.3688 31.0033 32.3554C30.8539 32.3276 30.7115 32.2707 30.5842 32.1878C30.4568 32.1049 30.3471 31.9978 30.2612 31.8725C30.1753 31.7471 30.1149 31.6061 30.0835 31.4575C30.0521 31.3088 30.0504 31.1554 30.0783 31.0061L33.5471 12.5061C33.6035 12.2046 33.7773 11.938 34.0304 11.7647C34.2834 11.5915 34.595 11.5258 34.8964 11.5822C35.1978 11.6387 35.4645 11.8125 35.6378 12.0656C35.811 12.3186 35.8767 12.6301 35.8202 12.9316L32.3515 31.4316C32.3019 31.6964 32.1615 31.9355 31.9544 32.1078C31.7473 32.28 31.4866 32.3746 31.2172 32.3751Z" fill="#7A4321"/>
            <path d="M52.0302 32.3751C51.7606 32.3748 51.4996 32.2804 51.2923 32.1081C51.085 31.9359 50.9443 31.6965 50.8947 31.4316L47.426 12.9316C47.3696 12.6301 47.4352 12.3186 47.6085 12.0656C47.7817 11.8125 48.0484 11.6387 48.3498 11.5822C48.6513 11.5258 48.9628 11.5915 49.2158 11.7647C49.4689 11.938 49.6428 12.2046 49.6992 12.5061L53.1679 31.0061C53.1959 31.1554 53.1941 31.3088 53.1627 31.4575C53.1313 31.6061 53.071 31.7471 52.9851 31.8725C52.8992 31.9978 52.7894 32.1049 52.6621 32.1878C52.5347 32.2707 52.3923 32.3276 52.2429 32.3554C52.1728 32.3687 52.1016 32.3753 52.0302 32.3751Z" fill="#7A4321"/>
            <path d="M37 48.5625H32.375V50.875H37V48.5625Z" fill="#EBEBE8"/>
            <path d="M55.5 48.5625H50.875V50.875H55.5V48.5625Z" fill="#EBEBE8"/>
            <path d="M30.3282 33.9476L29.1719 35.335L30.9483 36.8155L32.1046 35.4281L30.3282 33.9476Z" fill="#A7E1EB"/>
            <path d="M28.0158 36.7221L24.5469 40.8843L26.3233 42.3648L29.7922 38.2026L28.0158 36.7221Z" fill="#A7E1EB"/>
            <path d="M41.625 45.0938H39.3125V58.9688H41.625V45.0938Z" fill="#D13E37"/>
            <g opacity="0.6" filter="url(#filter0_f_2024_24995)">
                <ellipse cx="38.4324" cy="64.8234" rx="34.1355" ry="0.477419" fill="#2C5134"/>
            </g>
        </g>
        <defs>
            <filter id="filter0_f_2024_24995" x="0.296875" y="60.3459" width="76.2715" height="8.95483" filterUnits="userSpaceOnUse" color-interpolation-filters="sRGB">
                <feFlood flood-opacity="0" result="BackgroundImageFix"/>
                <feBlend mode="normal" in="SourceGraphic" in2="BackgroundImageFix" result="shape"/>
                <feGaussianBlur stdDeviation="2" result="effect1_foregroundBlur_2024_24995"/>
            </filter>
            <clipPath id="clip0_2024_24995">
                <rect width="74" height="74" fill="white"/>
            </clipPath>
        </defs>
    </svg>
    <view id="delete" viewBox="296 0 74 74" />
    <svg width="74" height="74" viewBox="0 0 24 24" fill="none" x="296">
        <path d="M20.25 6H17.25V4.125C17.25 3.29766 16.5773 2.625 15.75 2.625H8.25C7.42266 2.625 6.75 3.29766 6.75 4.125V6H3.75C3.33516 6 3 6.33516 3 6.75V7.5C3 7.60313 3.08437 7.6875 3.1875 7.6875H4.60312L5.18203 19.9453C5.21953 20.7445 5.88047 21.375 6.67969 21.375H17.3203C18.1219 21.375 18.7805 20.7469 18.818 19.9453L19.3969 7.6875H20.8125C20.9156 7.6875 21 7.60313 21 7.5V6.75C21 6.33516 20.6648 6 20.25 6ZM15.5625 6H8.4375V4.3125H15.5625V6Z" />
    </svg>
</svg>
